<svg width="1468" height="1677" viewBox="0 0 1468 1677" fill="none" xmlns="http://www.w3.org/2000/svg">
<path d="M711.802 1.06677C711.802 1.6001 697.668 2.80005 680.335 3.7334C663.135 4.66675 644.335 6.00012 638.735 6.66675C610.735 10.2667 586.335 14.1334 575.135 16.5334C570.735 17.6001 563.535 19.0668 559.135 20.0001C467.135 39.7334 368.868 85.0668 289.802 144.4C188.202 220.667 108.335 322.533 58.4684 439.333C57.0018 442.933 55.1351 447.2 54.4684 448.667C45.8018 469.067 29.8018 516.533 25.2684 535.333C24.6018 538.267 22.7351 545.734 21.2684 552C15.1351 576.267 15.0018 577.2 10.6018 603.333C1.66844 656.667 -1.93156 714.267 1.00177 760.667C3.00177 791.2 7.5351 834.133 10.4684 848C11.1351 851.333 12.6018 859.333 13.8018 866C14.8684 872.533 16.4684 880.133 17.1351 882.667C17.8018 885.2 19.6684 892.667 21.1351 899.333C25.8018 919.2 26.4684 921.6 29.9351 933.333C39.2684 963.867 47.2684 986.4 58.4684 1012.67C59.1351 1014.13 61.0018 1018.67 62.7351 1022.67C66.4684 1031.73 87.6684 1074.13 93.0018 1083.6C108.602 1110.93 118.468 1126.4 137.135 1152.53C222.068 1271.47 341.668 1362.53 478.468 1412.13C527.002 1429.87 578.602 1442.27 632.468 1449.33C651.935 1451.87 690.868 1454.67 707.802 1454.67C725.668 1454.67 730.335 1455.87 725.935 1459.33C724.468 1460.4 722.468 1461.33 721.535 1461.33C720.602 1461.33 716.468 1462.93 712.202 1464.8C707.935 1466.67 703.268 1468.67 701.802 1469.33C700.335 1469.87 697.002 1471.33 694.468 1472.4C691.935 1473.47 676.202 1480 659.402 1486.8C642.735 1493.73 629.268 1499.73 629.402 1500.13C629.668 1500.53 646.335 1512 666.468 1525.6C705.668 1551.87 761.135 1589.2 836.468 1639.73C862.202 1657.07 884.602 1672.27 886.335 1673.6C892.602 1678.4 891.002 1679.07 946.868 1648.8C955.668 1644 966.602 1638.13 985.135 1628.27C997.268 1621.87 1002.47 1619.07 1030.47 1604C1061.4 1587.33 1076.34 1579.47 1097.8 1568C1117.4 1557.6 1139.94 1545.33 1146.87 1541.47C1149.27 1540.13 1159.54 1534.67 1169.8 1529.33C1180.07 1524 1189.14 1519.2 1189.8 1518.67C1190.6 1518.13 1197.8 1514.27 1205.8 1510C1213.94 1505.73 1227.67 1498.4 1236.47 1493.6C1245.27 1488.93 1269.27 1476 1289.8 1465.07C1310.34 1454 1331.67 1442.67 1337.14 1439.6C1342.6 1436.67 1355 1430.13 1364.47 1424.93C1374.07 1419.87 1386.07 1413.47 1391.14 1410.67C1396.34 1408 1405.54 1402.93 1411.8 1399.6C1418.07 1396.27 1428.2 1390.8 1434.47 1387.47C1440.74 1384.13 1449.54 1379.47 1454.2 1377.07C1458.74 1374.67 1462.34 1372.13 1462.07 1371.33C1461.8 1370.67 1455.4 1367.87 1447.67 1365.2C1427.67 1358.27 1419 1355.2 1408.47 1351.33C1403.4 1349.33 1397.4 1347.2 1395.14 1346.67C1393 1346 1388.74 1344.67 1385.8 1343.47C1380.07 1341.33 1351.14 1331.07 1327.14 1322.67C1319.14 1319.87 1308.34 1316 1303.14 1314C1298.07 1312.13 1289.67 1309.07 1284.47 1307.33C1279.4 1305.6 1268.2 1301.73 1259.8 1298.67C1251.4 1295.6 1240.34 1291.73 1235.14 1290C1230.07 1288.27 1221.67 1285.2 1216.47 1283.33C1211.4 1281.33 1205 1279.2 1202.47 1278.4C1199.94 1277.6 1197.14 1276.53 1196.2 1275.87C1195.4 1275.07 1191.8 1274 1188.2 1273.33C1184.74 1272.67 1171.27 1268.53 1158.47 1264.13C1145.67 1259.73 1133.8 1256 1132.2 1256C1130.6 1256 1128.87 1255.33 1128.47 1254.67C1128.07 1253.87 1126.47 1253.33 1125.14 1253.33C1123.8 1253.33 1122.07 1252.4 1121.54 1251.33C1120.87 1250.27 1113.54 1246.93 1105.14 1243.87C1079.27 1234.67 1052.73 1225.2 1047.14 1223.33C1044.2 1222.4 1036.73 1219.73 1030.47 1217.33C1024.2 1215.07 1017.67 1212.67 1015.8 1212C1006.87 1209.07 962.468 1193.33 957.802 1191.6C951.935 1189.33 945.402 1186.93 895.135 1169.33C876.068 1162.67 858.068 1156.27 855.135 1155.07C852.202 1153.87 847.402 1152.27 844.468 1151.2C841.535 1150.27 832.202 1147.07 823.802 1144C794.868 1133.6 789.802 1131.73 784.468 1130C781.535 1129.07 772.202 1125.73 763.802 1122.67C755.402 1119.6 747.002 1116.53 745.135 1116C737.802 1113.6 692.335 1097.47 658.468 1085.33C650.068 1082.27 639.535 1078.53 635.135 1077.07C630.735 1075.6 626.202 1074.13 625.135 1073.73C617.135 1070.8 596.068 1063.33 587.802 1060.53C582.335 1058.67 576.068 1056.4 573.802 1055.33C563.135 1050.67 548.735 1046.4 546.068 1047.2C544.068 1047.6 542.202 1050 540.602 1053.6C539.135 1056.8 536.602 1062.27 534.868 1066C533.135 1069.6 532.068 1073.33 532.335 1074.13C532.602 1074.93 536.735 1077.6 541.402 1080C545.935 1082.4 555.802 1087.47 563.135 1091.33C570.468 1095.2 584.335 1102.4 593.802 1107.33C603.402 1112.4 614.202 1118 617.802 1120C621.535 1122 633.535 1128.27 644.468 1134C655.535 1139.73 668.735 1146.53 673.802 1149.33C679.002 1152 689.802 1157.73 697.802 1162C705.935 1166.27 721.135 1174.4 731.802 1180C742.468 1185.73 758.068 1194 766.468 1198.4C774.868 1202.8 785.668 1208.4 790.468 1210.93C795.268 1213.6 807.535 1220 817.802 1225.33C828.068 1230.67 839.535 1236.67 843.135 1238.67C846.868 1240.67 859.402 1247.2 871.135 1253.33C882.868 1259.33 896.335 1266.53 901.135 1269.07C905.935 1271.6 918.202 1278.13 928.468 1283.33C947.802 1293.33 965.002 1302.4 986.068 1313.47C992.868 1317.07 999.135 1320 1000.07 1320C1001 1320 1006.2 1322.27 1011.54 1324.93C1021.14 1329.73 1024.73 1333.33 1023.14 1336C1022.2 1337.6 1008.34 1344.13 996.202 1348.8C988.335 1351.73 982.602 1354.27 969.668 1360.13C966.735 1361.6 963.668 1362.67 962.868 1362.67C962.068 1362.67 957.268 1364.53 952.202 1366.8C936.602 1374 901.002 1386.27 883.802 1390.53C813.002 1407.87 743.668 1414 675.135 1408.67C558.335 1399.73 457.802 1366.13 358.468 1302.8C305.935 1269.33 247.802 1218.53 209.535 1172.67C191.135 1150.53 186.202 1144.27 173.268 1126.13C147.268 1089.73 123.002 1048 107.802 1014C106.068 1010.27 102.735 1002.93 100.335 997.6C97.8018 992.133 95.8018 987.2 95.8018 986.533C95.8018 985.867 95.2684 984.267 94.4684 982.933C91.5351 977.867 84.4684 958.133 73.8018 925.333C67.6684 906.4 59.2684 870 53.9351 840C41.1351 766.533 41.5351 676.8 55.1351 604.667C57.4018 593.2 57.9351 590.533 61.0018 575.333C61.8018 571.6 63.0018 566.533 63.6684 564C64.3351 561.467 65.9351 555.734 67.1351 551.333C71.2684 536 72.2018 532.533 77.4018 516.667C84.4684 494.8 87.9351 485.467 98.2018 460.667C106.735 440 126.335 399.867 133.535 388.4C135.535 385.2 137.135 382.4 137.135 382C137.135 381.6 140.202 376.4 143.935 370.267C211.802 261.2 301.802 177.733 413.535 120.133C486.468 82.5334 560.735 60.5334 647.935 50.5334C684.602 46.2667 749.002 46.2667 785.135 50.5334C830.602 55.7334 864.335 62.5334 907.135 74.6667C925.935 80.1334 967.135 95.2001 983.535 102.8C988.202 104.933 992.202 106.667 992.602 106.667C994.202 106.667 1035.4 127.867 1049.14 135.733C1141.4 188.667 1223.8 266.267 1281.27 354.667C1291.94 370.8 1298.47 381.333 1298.47 381.867C1298.47 382.133 1301.54 387.6 1305.27 394.133C1332.87 442 1357.67 503.467 1372.6 561.333C1387.27 617.6 1395.94 692.933 1394.07 745.467C1393 772.8 1391 801.2 1389.27 813.333C1388.47 818.133 1387 828.533 1385.8 836.667C1384.6 844.667 1383.14 853.733 1382.47 856.667C1381.94 859.6 1380.34 867.067 1379 873.333C1371.8 908.667 1361.54 943.2 1347 980.667C1338.47 1002.53 1338.07 1003.33 1335.67 1003.33C1333.14 1003.33 1327.94 992.4 1327.94 986.933C1327.8 984.533 1327.27 981.6 1326.47 980.267C1325.8 979.067 1323.4 973.2 1321 967.333C1318.74 961.467 1315.4 953.467 1313.67 949.6C1311.94 945.733 1310.47 942 1310.47 941.333C1310.47 940.533 1309.94 938.933 1309.14 937.6C1307.67 934.8 1305.54 929.733 1298.47 912C1292.87 897.733 1291.54 894.4 1288.47 887.333C1287.54 885.067 1284.2 877.067 1281.14 869.333C1278.2 861.6 1275.14 854.133 1274.47 852.667C1273.94 851.2 1269.94 841.6 1265.8 831.333C1261.67 821.067 1257.8 811.467 1257.14 810C1256.6 808.533 1253.54 801.067 1250.47 793.333C1247.4 785.6 1244.34 778.133 1243.8 776.667C1243.14 775.2 1240.07 767.733 1237 760C1234.07 752.267 1230.74 744.133 1229.67 742C1228.74 739.733 1226.87 735.467 1225.67 732.4C1224.34 729.067 1222.2 726.533 1220.6 726.133C1215.14 724.667 914.735 725.2 913.802 726.8C913.268 727.467 913.802 729.2 914.868 730.4C917.002 732.933 920.602 738.8 927.535 752C929.935 756.8 932.468 761.2 933.135 762C934.602 763.867 939.268 772.133 946.202 785.333C949.402 791.6 953.135 798.133 954.468 800C957.002 803.733 963.135 814.8 970.468 828.667C973.268 833.733 977.268 840.933 979.535 844.667C981.802 848.267 985.002 854 986.602 857.333C988.202 860.667 992.202 867.733 995.402 873.067C998.602 878.4 1001.8 884.133 1002.47 885.733C1003.27 887.333 1004.34 889.6 1005.14 890.667C1005.8 891.733 1008.6 896.533 1011.27 901.333C1015.54 909.067 1019.4 916 1026.47 928.667C1027.67 930.8 1030.73 936.267 1033.14 940.667C1035.54 945.067 1037.94 949.2 1038.47 950C1039 950.667 1042.07 956.133 1045.14 962C1048.34 967.867 1051.94 974.133 1053.14 976C1054.47 977.867 1059.14 986.533 1063.8 995.333C1068.34 1004.13 1072.87 1012.27 1073.8 1013.33C1074.73 1014.4 1078.47 1021.07 1082.07 1028C1085.8 1034.93 1089.94 1042.8 1091.4 1045.33C1092.87 1047.87 1096.07 1053.6 1098.47 1058C1100.87 1062.4 1104.34 1068.27 1106.07 1070.93C1107.67 1073.73 1109.14 1076.27 1109.14 1076.67C1109.14 1076.93 1111 1080.27 1113.27 1084C1117.8 1091.47 1118.07 1096.93 1113.8 1096.27C1112.34 1096 1108.47 1095.2 1105.14 1094.53C1101.8 1093.87 1098.2 1093.2 1097.14 1093.2C1096.07 1093.07 1091.54 1092.13 1087.14 1091.07C1082.73 1090 1077.67 1088.93 1075.8 1088.67C1069.4 1087.87 1049.8 1084 1044.47 1082.53C1041.54 1081.73 1035.54 1080.53 1031.14 1079.87C1026.73 1079.2 1021.67 1078.13 1019.8 1077.47C1017.94 1076.67 1012.74 1075.73 1008.07 1075.33C1003.54 1074.8 999.402 1073.87 999.002 1073.2C998.602 1072.53 996.335 1072 993.935 1072C991.535 1072 986.602 1071.07 983.002 1070C979.402 1068.93 974.602 1068 972.202 1068C969.935 1068 966.468 1067.47 964.468 1066.67C962.602 1066 957.935 1064.8 954.068 1064.13C950.202 1063.33 944.468 1062.13 941.135 1061.33C935.535 1060 923.268 1057.47 909.135 1054.8C894.202 1051.87 886.868 1050.4 883.135 1049.2C880.868 1048.53 876.068 1047.6 872.468 1047.2C868.735 1046.67 862.468 1045.47 858.468 1044.4C854.468 1043.2 849.668 1042.13 847.802 1041.87C845.935 1041.6 841.802 1040.8 838.468 1040C835.135 1039.33 827.668 1037.87 821.802 1036.67C815.935 1035.47 808.468 1034 805.135 1033.2C801.802 1032.4 795.268 1031.07 790.468 1030.13C785.668 1029.2 780.868 1028.13 779.802 1027.73C778.735 1027.33 773.668 1026.27 768.468 1025.33C763.402 1024.53 756.468 1023.2 753.135 1022.53C749.802 1021.73 745.402 1020.93 743.135 1020.53C741.002 1020.13 735.268 1019.07 730.468 1018C725.668 1017.07 717.135 1015.2 711.402 1014.13C685.402 1008.93 681.402 1008.13 674.468 1006.53C670.468 1005.73 663.002 1004.27 657.802 1003.33C652.735 1002.27 643.668 1000.53 637.802 999.333C631.935 998.133 624.468 996.667 621.135 996C617.802 995.333 612.468 994.267 609.268 993.333C606.068 992.533 601.935 991.733 599.935 991.467C598.068 991.067 593.535 990.267 589.802 989.333C581.268 987.467 565.135 984.267 556.202 982.8C552.335 982.133 547.268 980.933 544.868 980.267C542.468 979.467 537.668 978.533 534.335 978.133C528.735 977.467 528.068 977.733 526.602 980.8C525.802 982.533 524.735 986.667 524.335 989.733C523.802 992.8 522.335 997.6 521.002 1000.27C519.535 1003.07 518.468 1005.73 518.468 1006.27C518.468 1006.93 521.402 1008.13 525.135 1008.93C528.735 1009.87 533.668 1011.33 536.068 1012.4C538.468 1013.47 560.602 1020.93 585.135 1029.07C641.935 1048 664.735 1055.6 669.802 1057.47C672.068 1058.27 675.668 1059.47 677.802 1060C680.068 1060.67 686.068 1062.8 691.135 1064.67C696.335 1066.67 702.735 1068.8 705.535 1069.47C708.335 1070.13 711.535 1071.33 712.868 1072C715.135 1073.2 747.268 1084.4 755.135 1086.67C757.402 1087.33 763.935 1089.47 769.802 1091.47C783.535 1096 782.068 1095.6 799.135 1101.6C807.268 1104.53 815.668 1107.33 817.802 1108C820.068 1108.53 828.068 1111.2 835.802 1113.87C843.535 1116.53 851.668 1119.33 853.802 1120C856.068 1120.67 860.868 1122.13 864.468 1123.47C868.202 1124.67 872.335 1126.13 873.802 1126.67C875.268 1127.2 878.602 1128.4 881.135 1129.2C883.668 1130.13 887.668 1131.47 889.802 1132C895.002 1133.47 909.002 1138.27 912.468 1139.87C913.935 1140.4 918.735 1142 923.135 1143.33C927.535 1144.67 933.002 1146.53 935.135 1147.33C937.402 1148.27 943.002 1150.13 947.802 1151.73C952.602 1153.2 960.735 1156 965.802 1158C971.002 1160 977.002 1162 979.268 1162.67C981.668 1163.2 984.202 1164.13 985.135 1164.67C986.068 1165.2 988.602 1166.13 991.002 1166.8C996.068 1168.13 1022.07 1176.93 1025.8 1178.53C1027.27 1179.2 1041.4 1184 1057.14 1189.2C1091.27 1200.4 1094.34 1201.47 1097.8 1202.8C1099.27 1203.33 1107.94 1206.27 1117.14 1209.33C1126.34 1212.27 1135 1215.2 1136.47 1215.87C1137.94 1216.53 1148.2 1219.87 1159.14 1223.33C1170.2 1226.8 1182.6 1230.8 1186.74 1232.13C1191 1233.6 1195.14 1234.67 1195.94 1234.67C1196.87 1234.67 1200.6 1236.13 1204.34 1237.87C1217.27 1243.87 1221.27 1245.33 1225.14 1245.33C1227.27 1245.33 1229.27 1245.87 1229.67 1246.53C1230.07 1247.07 1234.2 1248.93 1238.74 1250.67C1243.4 1252.27 1248.2 1254.13 1249.4 1254.8C1250.74 1255.47 1252.74 1256 1253.8 1256C1254.87 1256 1256.87 1256.53 1258.2 1257.2C1259.4 1257.87 1266.2 1260.27 1273.14 1262.53C1284.2 1266 1303.14 1272.27 1309.14 1274.4C1310.2 1274.8 1313.54 1275.87 1316.47 1276.8C1319.4 1277.73 1330.87 1281.6 1341.8 1285.33C1352.87 1289.2 1363.67 1292.8 1365.8 1293.47C1368.07 1294 1374.07 1296.13 1379.14 1298C1384.34 1300 1390.74 1302.13 1393.54 1302.8C1396.34 1303.47 1399.54 1304.53 1400.87 1305.2C1404.2 1306.8 1411.8 1309.33 1417.54 1310.8C1420.34 1311.47 1423.54 1312.53 1424.87 1313.2C1427.54 1314.53 1437 1317.73 1449.14 1321.47C1453.94 1322.93 1459.8 1325.2 1462.2 1326.27C1467.4 1328.8 1468.74 1328 1466.07 1323.73C1465 1322.13 1462.74 1317.33 1461.14 1313.33C1459.54 1309.33 1457.27 1303.87 1456.2 1301.33C1455.14 1298.8 1453.8 1295.47 1453.27 1294C1452.6 1292.53 1450.47 1287.47 1448.47 1282.67C1446.47 1277.87 1443.8 1271.33 1442.47 1268C1437.8 1255.47 1437 1253.6 1430.47 1238.67C1428.2 1233.2 1425.4 1226.27 1424.47 1223.33C1422.07 1215.87 1410.34 1187.6 1409 1186.13C1408.34 1185.33 1407.8 1184 1407.8 1182.93C1407.8 1181.87 1407 1179.2 1405.94 1176.93C1404.87 1174.53 1401.54 1166.4 1398.47 1158.67C1395.27 1150.93 1392.2 1144.13 1391.54 1143.47C1391 1142.67 1390.47 1140.93 1390.47 1139.6C1390.47 1138.27 1389.67 1135.47 1388.6 1133.6C1387.54 1131.6 1385.67 1127.33 1384.47 1124C1383.14 1120.67 1381 1115.33 1379.54 1112.13C1378.07 1108.93 1374.34 1099.6 1371.14 1091.47C1365.67 1077.47 1362.6 1070.4 1359.67 1064.93C1358.6 1063.07 1358.87 1061.87 1360.34 1060.13C1361.54 1058.8 1362.47 1057.47 1362.47 1057.07C1362.47 1056.67 1365.54 1049.87 1369.14 1042.13C1372.87 1034.4 1375.8 1027.73 1375.8 1027.33C1375.8 1027.07 1377.27 1023.6 1379 1019.73C1380.87 1015.87 1384.2 1007.87 1386.47 1002C1388.87 996.133 1391.27 990.133 1391.8 988.667C1393.8 984.133 1403.27 955.867 1406.74 944C1413.27 922.267 1414.47 917.867 1417.8 903.333C1419.67 895.2 1421.8 886.267 1422.47 883.333C1423.14 880.4 1424.6 872.267 1425.8 865.333C1427 858.4 1428.47 849.6 1429.14 846C1433.8 820.8 1438.47 763.2 1438.47 730.667C1438.47 671.333 1427.54 590.533 1412.47 538.667C1411.54 535.333 1409.67 529.067 1408.47 524.667C1385.14 443.2 1343.27 360 1290.34 290C1209.67 183.067 1099.67 99.7334 975.135 51.0668C903.935 23.2001 832.068 8.00012 751.535 3.7334C734.735 2.80005 721.135 1.6001 721.135 1.06677C721.135 0.533447 719.002 0.00012207 716.468 0.00012207C713.935 0.00012207 711.802 0.533447 711.802 1.06677ZM1202.74 762.667C1203.94 765.2 1208.34 775.733 1212.47 786C1216.6 796.267 1220.47 805.867 1221.14 807.333C1221.67 808.8 1225.67 818.4 1229.8 828.667C1233.94 838.933 1237.8 848.533 1238.47 850C1239 851.467 1242.07 858.933 1245.14 866.667C1248.2 874.4 1251.27 881.867 1251.8 883.333C1255.54 892.133 1257.4 896.8 1262.47 909.333C1268.07 923.333 1268.6 924.533 1272.2 933.333C1273.4 935.867 1276.74 944.267 1279.8 952C1282.74 959.733 1285.8 967.2 1286.47 968.667C1287 970.133 1291 979.733 1295.14 990C1304.2 1012.67 1303.27 1010.27 1312.2 1030.67C1318.74 1045.47 1335.4 1087.2 1346.6 1116.67C1348.87 1122.53 1351.14 1128.53 1351.8 1130C1352.47 1131.47 1356.34 1141.07 1360.47 1151.33C1364.6 1161.6 1368.47 1171.2 1369.14 1172.67C1369.8 1174.13 1373.67 1183.73 1377.8 1194C1381.94 1204.27 1385.8 1213.87 1386.47 1215.33C1387 1216.8 1391 1226.4 1395.14 1236.67C1403.4 1257.07 1403.8 1258.4 1407.14 1265.73C1409.54 1271.47 1408.74 1273.87 1404.6 1272.93C1403.14 1272.53 1378.74 1264.4 1350.47 1254.67C1292.87 1235.07 1262.2 1224.8 1244.47 1219.33C1237.94 1217.33 1226.2 1213.33 1218.47 1210.67C1192.6 1201.6 1183.14 1198.27 1172.47 1194.53C1154.6 1188.27 1060.73 1156.27 1033.8 1147.33C1019.94 1142.67 985.402 1130.93 957.135 1121.33C928.868 1111.73 885.402 1096.93 860.468 1088.67C806.068 1070.27 806.335 1070.4 806.868 1068.67C807.535 1066.8 813.135 1067.2 825.135 1069.73C843.802 1073.87 896.868 1084.93 909.135 1087.33C913.935 1088.27 925.668 1090.67 935.135 1092.67C944.735 1094.67 955.135 1096.8 958.468 1097.47C961.802 1098 973.135 1100.4 983.802 1102.67C994.468 1104.93 1006.2 1107.33 1009.8 1108C1013.54 1108.67 1032.73 1112.53 1052.47 1116.67C1072.34 1120.8 1099.94 1126.4 1113.8 1129.2C1169.54 1140.67 1180.47 1142.93 1181.54 1143.6C1183.27 1144.67 1182.6 1141.6 1180.07 1137.07C1178.74 1134.67 1175.94 1129.87 1174.07 1126.4C1172.07 1122.93 1167.94 1115.33 1164.74 1109.73C1157.94 1097.87 1155.4 1093.2 1149.14 1082C1143 1070.93 1140.34 1066.13 1133.8 1054.67C1125 1039.2 1123 1035.47 1117.67 1025.73C1115 1020.8 1111.67 1014.8 1110.47 1012.67C1109.14 1010.4 1106.6 1006 1104.87 1002.67C1103 999.333 1097.27 989.2 1092.2 980C1087 970.8 1081.67 961.2 1080.2 958.667C1078.73 956.133 1076.07 951.333 1074.2 948C1072.34 944.667 1066.6 934.533 1061.54 925.333C1056.34 916.133 1051 906.533 1049.54 904C1048.07 901.467 1045.27 896.533 1043.4 893.067C1041.4 889.6 1037.27 882 1034.07 876.4C1026.07 862.4 1023.67 858 1011.14 835.333C1000.74 816.667 978.735 777.333 972.735 766.8C970.868 763.6 969.668 760.133 970.068 759.067C970.602 757.6 989.802 757.333 1085.54 757.6L1200.34 758L1202.74 762.667ZM785.535 1164.8C790.735 1166.67 797.535 1168.93 800.468 1170C803.402 1170.93 814.468 1174.93 825.135 1178.67C843.802 1185.33 859.268 1190.8 907.135 1207.73C919.668 1212.13 936.735 1218.27 945.135 1221.33C953.535 1224.4 964.735 1228.27 969.802 1230C975.002 1231.73 986.068 1235.6 994.468 1238.67C1002.87 1241.73 1015.8 1246.27 1023.14 1248.8C1030.47 1251.33 1037.67 1254 1039.14 1254.53C1040.6 1255.2 1044.87 1256.8 1048.47 1258C1052.2 1259.33 1056.34 1260.8 1057.8 1261.33C1062.47 1263.33 1084.2 1270.27 1093.14 1272.67C1101.8 1274.93 1112.6 1278.8 1120.74 1282.13C1123 1283.2 1125.4 1284 1126.07 1284C1126.6 1284 1130.74 1285.47 1135.14 1287.2C1139.54 1288.93 1145.54 1291.07 1148.47 1292C1151.4 1292.93 1157.14 1294.93 1161.14 1296.67C1178.07 1303.6 1183.94 1305.87 1197.8 1310.93C1215 1317.2 1243.8 1327.47 1264.47 1334.67C1272.6 1337.47 1286.07 1342.27 1294.47 1345.33C1302.87 1348.4 1312.2 1351.73 1315.14 1352.67C1320.87 1354.53 1337.4 1360.4 1362.47 1369.33C1370.87 1372.27 1378.2 1375.2 1378.87 1375.87C1381 1378 1378.2 1380.93 1370.07 1385.07C1365.54 1387.33 1357 1391.87 1351.14 1395.07C1338.47 1402 1323.4 1410.13 1307.8 1418.4C1301.54 1421.73 1292.87 1426.27 1288.47 1428.67C1284.07 1431.07 1275.14 1435.87 1268.47 1439.33C1261.94 1442.8 1254.74 1446.67 1252.47 1448C1250.34 1449.2 1243.14 1453.2 1236.47 1456.67C1229.94 1460.13 1220.87 1464.93 1216.47 1467.33C1212.07 1469.73 1203.94 1474 1198.47 1476.93C1177.8 1488 1160.07 1497.47 1143.8 1506.27C1139.8 1508.53 1131.4 1512.93 1125.14 1516.27C1118.87 1519.6 1110.47 1524.13 1106.47 1526.27C1102.47 1528.53 1093.8 1533.07 1087.14 1536.67C1070.47 1545.6 1039.14 1562.4 1031.14 1566.67C1021.27 1572 969.135 1599.87 953.802 1608C946.468 1611.87 939.935 1615.47 939.135 1616C938.468 1616.53 931.268 1620.4 923.135 1624.67C915.135 1628.93 905.935 1633.73 902.735 1635.47C899.668 1637.2 896.202 1638.67 895.135 1638.67C894.068 1638.67 881.268 1630.67 866.868 1620.93C852.335 1611.2 819.135 1588.8 793.135 1571.33C704.335 1511.6 701.802 1509.87 701.402 1507.2C701.135 1505.07 708.602 1501.6 752.068 1483.47C780.202 1471.87 821.135 1454.8 843.135 1445.6C865.135 1436.53 885.268 1428.4 887.802 1427.73C890.335 1426.93 893.668 1425.33 895.135 1424C896.602 1422.67 900.868 1420.4 904.468 1418.93C913.268 1415.47 940.735 1404.27 945.802 1402C948.068 1400.93 954.868 1398.13 961.135 1395.6C967.402 1393.07 979.135 1388.13 987.135 1384.67C995.268 1381.33 1004.2 1377.6 1007.14 1376.53C1010.07 1375.47 1016.34 1372.8 1021.14 1370.67C1025.94 1368.53 1038.2 1363.47 1048.47 1359.33C1058.73 1355.2 1069 1350.93 1071.14 1350C1073.4 1349.07 1079 1346.67 1083.8 1344.67C1095.67 1339.6 1096.2 1339.47 1096.2 1338C1096.07 1337.33 1090.73 1334 1084.34 1330.53C1077.8 1327.07 1069.8 1322.8 1066.47 1320.93C1063.14 1319.07 1056.34 1315.33 1051.4 1312.8C1046.34 1310.13 1040.47 1306.53 1038.2 1304.67C1036.07 1302.8 1033.8 1301.33 1033.27 1301.33C1032.73 1301.33 1025.67 1297.87 1017.67 1293.6C1009.67 1289.33 994.735 1281.33 984.468 1276C974.202 1270.67 961.002 1263.73 955.135 1260.67C929.002 1246.93 915.402 1239.73 900.468 1232C891.668 1227.33 879.402 1220.93 873.135 1217.6C859.935 1210.67 841.668 1201.07 823.802 1191.6C816.868 1188 806.335 1182.4 800.468 1179.33C794.602 1176.27 786.735 1172 783.002 1170.13C779.135 1168.13 775.002 1165.33 773.802 1164C771.535 1161.6 771.535 1161.33 773.668 1161.33C774.868 1161.33 780.202 1162.93 785.535 1164.8Z" fill="#31674D"/>
<path d="M644.468 91.8663C629.268 92.933 614.334 95.5997 597.134 100.266C591.668 101.733 585.401 103.466 583.134 104C581.001 104.533 574.334 106.4 568.468 108C562.601 109.6 555.801 111.466 553.534 112.133C551.134 112.8 547.134 113.866 544.868 114.666C542.468 115.333 537.534 116.8 533.801 117.733C526.468 119.866 499.401 128.8 495.134 130.533C493.668 131.2 484.334 134.8 474.468 138.666C437.534 152.933 387.534 179.466 352.468 203.333C278.068 253.866 213.668 320.8 167.134 396C153.668 417.733 151.934 420.8 139.268 446C129.534 465.2 125.668 473.466 120.468 486C119.534 488.133 117.934 492.133 116.734 494.666C115.668 497.2 113.801 502 112.734 505.333C111.668 508.666 109.934 513.066 109.134 515.333C105.934 523.2 105.401 524.8 103.268 531.333C102.068 534.933 99.6677 542.533 97.9343 548C93.5343 562 89.6677 576.666 85.801 594.666C84.601 600.133 83.001 606.8 82.3343 609.333C79.6677 620.266 74.4677 658 71.801 686C68.7343 718.933 70.201 777.2 75.1343 816C78.4677 841.733 80.601 855.466 82.4677 862.666C83.1343 865.2 84.601 872.133 85.801 878C87.1343 883.866 88.601 890.4 89.1343 892.666C89.801 894.8 91.2677 900.533 92.601 905.333C95.2677 915.866 100.334 932.266 104.601 944.266C109.934 959.6 114.734 972.4 116.601 976.933C117.668 979.333 119.268 983.333 120.334 985.6C126.468 1000.27 129.534 1006.8 139.268 1026C151.934 1051.2 153.668 1054.13 167.134 1076C190.468 1113.73 219.534 1150.67 253.801 1186.53C274.334 1208 318.201 1245.47 341.134 1261.2C379.001 1287.2 414.601 1307.6 446.468 1321.73C449.001 1322.93 454.601 1325.33 458.868 1327.2C463.134 1329.07 466.868 1330.67 467.268 1330.67C467.668 1330.67 469.934 1331.47 472.201 1332.53C474.601 1333.47 479.134 1335.33 482.468 1336.67C485.801 1337.87 489.668 1339.47 491.134 1340.13C494.201 1341.33 523.934 1351.07 533.134 1353.87C560.868 1362.27 603.268 1370.93 633.801 1374.53C692.601 1381.47 748.868 1380.93 803.134 1373.07C813.401 1371.6 824.868 1369.87 828.468 1369.33C832.201 1368.8 839.001 1367.73 843.801 1366.8C848.601 1365.87 855.534 1364.53 859.134 1364C873.134 1361.47 890.068 1358.53 896.468 1357.33C916.201 1353.73 951.934 1345.73 956.868 1343.87C960.734 1342.4 960.068 1341.33 952.868 1337.73C949.668 1336.13 945.801 1333.6 944.201 1332.13C942.601 1330.53 940.468 1329.33 939.401 1329.33C938.334 1329.33 933.401 1327.07 928.334 1324.27C923.268 1321.47 917.001 1318.27 914.468 1316.93C911.934 1315.6 908.068 1313.47 905.801 1312.13C903.668 1310.8 895.268 1306.27 887.134 1302C879.134 1297.73 870.601 1293.2 868.468 1292C866.201 1290.67 859.668 1287.2 853.801 1284C847.934 1280.93 840.201 1276.67 836.468 1274.67C832.868 1272.67 825.001 1268.4 819.134 1265.33C813.268 1262.13 806.601 1258.53 804.201 1257.2C800.201 1254.93 793.401 1251.2 773.801 1240.67C769.401 1238.27 763.134 1234.8 759.801 1233.07C756.468 1231.2 747.801 1226.53 740.468 1222.67C733.134 1218.8 726.601 1215.2 725.801 1214.67C725.134 1214.13 718.734 1210.67 711.801 1207.07C704.868 1203.33 692.868 1196.93 685.268 1192.8C676.068 1187.87 669.801 1185.33 666.734 1185.33C657.668 1185.33 605.534 1177.2 579.801 1171.73C572.868 1170.27 564.734 1168.53 561.801 1168C558.868 1167.47 553.801 1166.4 550.468 1165.47C547.134 1164.53 542.334 1163.2 539.801 1162.67C448.468 1139.87 365.534 1100.13 301.134 1048.53C284.734 1035.33 249.401 1001.6 236.334 986.666C230.068 979.466 217.668 964 212.334 956.666C210.201 953.733 208.201 951.066 207.801 950.666C205.001 948.133 181.401 910.666 174.201 897.6C165.801 882 155.534 860.8 149.801 847.333C148.868 845.066 147.401 841.466 146.468 839.333C137.134 816.933 124.334 776.266 118.601 750.666C117.934 747.333 116.601 741.6 115.668 738C114.868 734.266 113.668 728.666 113.134 725.333C112.468 722 111.001 713.333 109.801 706C108.601 698.666 107.001 687.866 106.468 682C105.801 676.133 104.601 665.066 103.668 657.333C102.868 649.6 102.068 625.333 102.068 603.333C101.934 559.466 101.268 564.8 111.534 533.333C115.668 520.4 121.401 505.333 125.934 495.066C127.001 492.8 127.801 490.533 127.801 490.133C127.801 487.466 153.401 435.2 160.068 424.266C162.868 419.733 165.134 415.733 165.134 415.466C165.134 414.533 177.801 394.4 187.134 380.666C238.734 304.4 311.534 235.733 391.134 188.4C392.601 187.466 394.734 186.266 395.801 185.733C396.868 185.2 401.401 182.8 405.801 180.266C434.201 164.133 461.268 152.933 489.801 145.333C507.001 140.8 571.668 124.533 581.801 122.266C619.801 113.733 678.868 109.866 720.468 113.2C809.934 120.4 889.268 149.466 963.801 202.266C987.268 218.933 1030.6 260.266 1050.07 284.666C1083.8 326.933 1111.93 376.933 1133.4 432.666C1143.67 459.2 1159.27 514.533 1164.47 542.266C1173.4 590 1177.27 626.133 1178.33 672.666L1179.13 711.333L1212.2 711.733L1245.13 712L1248.73 719.733C1250.6 723.866 1254.2 731.733 1256.6 737.066C1259.13 742.533 1261.13 747.6 1261.13 748.533C1261.13 749.333 1261.67 750.666 1262.2 751.333C1262.73 752.133 1265.8 758.666 1269 766C1279.4 789.866 1283.93 800.266 1288.33 809.733C1290.2 814 1291.8 817.6 1291.8 818C1291.8 818.266 1293.53 822.266 1295.67 826.933C1300.47 837.2 1312.47 864.933 1316.07 874C1317.53 877.6 1320.2 884 1322.07 888C1323.93 892 1326.07 897.733 1326.73 900.666C1327.4 903.6 1328.47 908.266 1329 911.066C1329.67 913.866 1330.47 916.533 1330.87 916.933C1333 918.933 1335.53 913.866 1337 905.066C1339.13 892.533 1340.73 883.733 1342.6 874.666C1343.53 870.666 1344.6 864.266 1345.27 860.666C1345.8 856.933 1347.27 848.533 1348.33 842C1349.53 835.333 1351 824.933 1351.67 818.666C1352.47 812.4 1353.67 802.533 1354.6 796.666C1356.73 782.266 1356.73 691.466 1354.6 676C1353.67 669.733 1352.47 659.6 1351.67 653.333C1350.6 643.333 1349.27 634.4 1345.27 612C1344.6 608.666 1343.13 601.466 1341.8 596C1340.6 590.533 1339 583.866 1338.47 581.333C1337.93 578.8 1336.47 573.066 1335.13 568.666C1333.93 564.266 1332.47 558.8 1331.93 556.666C1331.4 554.4 1330.2 550.533 1329.4 548C1316.73 509.2 1316.6 508.666 1312.6 499.6C1311.4 496.8 1310.47 493.733 1310.47 492.666C1310.47 491.466 1309.93 489.6 1309.27 488.266C1308.6 487.066 1307.13 483.6 1306.07 480.666C1303.13 472.8 1297 457.066 1295.8 454C1295.13 452.533 1292.73 446.533 1290.33 440.666C1283.27 423.333 1263.8 386.133 1251 365.6C1240.07 347.866 1233 338 1210.73 309.466C1199.13 294.533 1165.53 260.266 1149.8 247.333C1142.73 241.466 1133.8 234.133 1130.07 230.933C1119.27 222 1088.87 201.466 1068.6 189.333C1050.47 178.666 1008.47 157.466 995.134 152.266C991.534 150.8 981.001 146.666 971.801 142.933C954.468 136.133 923.534 125.333 910.601 121.866C847.134 104.4 817.134 98.7997 758.468 93.1997C739.134 91.4663 663.934 90.533 644.468 91.8663ZM1348.87 716.666C1348.87 721.733 1348.47 728.933 1347.8 732.666C1347.13 737.6 1346.87 734.666 1346.73 720.666C1346.73 709.2 1347.13 703.066 1347.8 704.666C1348.47 706.133 1349 711.466 1348.87 716.666Z" fill="#31674D"/>
</svg>
