<svg width="20" height="20" viewBox="0 0 20 20" fill="none" xmlns="http://www.w3.org/2000/svg">
<path d="M3.33333 10.8333H5.83333V11.6667H3.33333V10.8333ZM3.33333 15H5.83333V14.1667H3.33333V15ZM7.5 15H10V14.1667H7.5V15ZM3.33333 5H5.83333V4.16667H3.33333V5ZM3.33333 8.33333H5.83333V7.5H3.33333V8.33333ZM7.5 11.6667H10V10.8333H7.5V11.6667ZM7.5 5H10V4.16667H7.5V5ZM7.5 8.33333H10V7.5H7.5V8.33333ZM15 15H16.6667V14.1667H15V15ZM15 8.33333H16.6667V7.5H15V8.33333ZM15 11.6667H16.6667V10.8333H15V11.6667ZM20 6.25V20H0V2.08333C0 0.934167 0.935 0 2.08333 0H11.25C12.3983 0 13.3333 0.934167 13.3333 2.08333V4.16667H17.9167C19.065 4.16667 20 5.10083 20 6.25ZM12.5 2.08333C12.5 1.39417 11.9392 0.833333 11.25 0.833333H2.08333C1.39417 0.833333 0.833333 1.39417 0.833333 2.08333V19.1667H12.5V2.08333ZM19.1667 6.25C19.1667 5.56083 18.6058 5 17.9167 5H13.3333V19.1667H19.1667V6.25Z" fill="#6A6A6A"/>
</svg>
